#
#
#

mtllib ground.mtl


#
# ground Mesh Mesh Mesh Mesh
#
g ground Mesh Mesh Mesh Mesh


#
# ground Mesh Mesh Mesh Mesh_ground Mesh Mesh Mesh_ground Mesh Mesh_ground Mesh_Default_material
#
usemtl ground Mesh Mesh Mesh Mesh_ground Mesh Mesh Mesh_ground Mesh Mesh_ground Mesh_Default_material

v 49.646446 -1.414214 -49.646446
v 49.646446 -1.414214 50.353554
v -50.353554 -1.414214 -49.646446
v -50.353554 -1.414214 50.353554
v 49.646446 -1.414214 50.353554
v -50.353554 -1.414214 -49.646446
vn 0.000000 -1.000000 0.000000
vn 0.000000 1.000000 0.000000
f 1//1 2//1 3//1
f 4//2 5//2 6//2
