#
#
#

mtllib ground.mtl


#
# ground Mesh Mesh Mesh
#
g ground Mesh Mesh Mesh


#
# ground Mesh Mesh Mesh_ground Mesh Mesh_ground Mesh_Default_material
#
usemtl ground Mesh Mesh Mesh_ground Mesh Mesh_ground Mesh_Default_material

v 49.198612 -3.205552 -49.198612
v 49.198612 -3.205552 50.801388
v -50.801388 -3.205552 -49.198612
v -50.801388 -3.205552 50.801388
v 49.198612 -3.205552 50.801388
v -50.801388 -3.205552 -49.198612
vn 0.000000 -1.000000 0.000000
vn 0.000000 1.000000 0.000000
vt 0.0 0.0
vt 1.0 0.0
vt 1.0 1.0
vt 0.0 1.0
f 1/1/1 2/2/1 3/3/1
f 4/4/2 5/2/2 6/3/2
